<svg width="428" height="13" viewBox="0 0 428 13" fill="none" xmlns="http://www.w3.org/2000/svg">
<path d="M419 1.57361e-06L426.794 9.75L411.206 9.75L419 1.57361e-06Z" fill="white"/>
<path d="M404.5 1.66103e-06L412.727 9.75L396.273 9.75L404.5 1.66103e-06Z" fill="white"/>
<path d="M390 1.57361e-06L397.794 9.75L382.206 9.75L390 1.57361e-06Z" fill="white"/>
<path d="M376 1.57361e-06L383.794 9.75L368.206 9.75L376 1.57361e-06Z" fill="white"/>
<path d="M362 1.57361e-06L369.794 9.75L354.206 9.75L362 1.57361e-06Z" fill="white"/>
<path d="M348 1.57361e-06L355.794 9.75L340.206 9.75L348 1.57361e-06Z" fill="white"/>
<path d="M333.5 1.66103e-06L341.727 9.75L325.273 9.75L333.5 1.66103e-06Z" fill="white"/>
<path d="M319.5 1.66103e-06L327.727 9.75L311.273 9.75L319.5 1.66103e-06Z" fill="white"/>
<path d="M306 1.57361e-06L313.794 9.75L298.206 9.75L306 1.57361e-06Z" fill="white"/>
<path d="M292 1.57361e-06L299.794 9.75L284.206 9.75L292 1.57361e-06Z" fill="white"/>
<path d="M277.5 1.66103e-06L285.727 9.75L269.273 9.75L277.5 1.66103e-06Z" fill="white"/>
<path d="M263 1.57361e-06L270.794 9.75L255.206 9.75L263 1.57361e-06Z" fill="white"/>
<path d="M249 1.57361e-06L256.794 9.75L241.206 9.75L249 1.57361e-06Z" fill="white"/>
<path d="M235 1.57361e-06L242.794 9.75L227.206 9.75L235 1.57361e-06Z" fill="white"/>
<path d="M220.5 1.66103e-06L228.727 9.75L212.273 9.75L220.5 1.66103e-06Z" fill="white"/>
<path d="M206 1.57361e-06L213.794 9.75L198.206 9.75L206 1.57361e-06Z" fill="white"/>
<path d="M192 1.57361e-06L199.794 9.75L184.206 9.75L192 1.57361e-06Z" fill="white"/>
<path d="M178 1.57361e-06L185.794 9.75L170.206 9.75L178 1.57361e-06Z" fill="white"/>
<path d="M164 1.57361e-06L171.794 9.75L156.206 9.75L164 1.57361e-06Z" fill="white"/>
<path d="M149 1.57361e-06L156.794 9.75L141.206 9.75L149 1.57361e-06Z" fill="white"/>
<path d="M135 1.57361e-06L142.794 9.75L127.206 9.75L135 1.57361e-06Z" fill="white"/>
<path d="M121 1.57361e-06L128.794 9.75L113.206 9.75L121 1.57361e-06Z" fill="white"/>
<path d="M107.5 1.66103e-06L115.727 9.75L99.2728 9.75L107.5 1.66103e-06Z" fill="white"/>
<path d="M93.5 1.66103e-06L101.727 9.75L85.2728 9.75L93.5 1.66103e-06Z" fill="white"/>
<path d="M79 1.57361e-06L86.7942 9.75L71.2058 9.75L79 1.57361e-06Z" fill="white"/>
<path d="M65 1.57361e-06L72.7942 9.75L57.2058 9.75L65 1.57361e-06Z" fill="white"/>
<path d="M65 1.57361e-06L72.7942 9.75L57.2058 9.75L65 1.57361e-06Z" fill="white"/>
<path d="M51 1.57361e-06L58.7942 9.75L43.2058 9.75L51 1.57361e-06Z" fill="white"/>
<path d="M36.5 1.66103e-06L44.7272 9.75L28.2728 9.75L36.5 1.66103e-06Z" fill="white"/>
<path d="M22 1.57361e-06L29.7942 9.75L14.2058 9.75L22 1.57361e-06Z" fill="white"/>
<path d="M8 1.57361e-06L15.7942 9.75L0.20577 9.75L8 1.57361e-06Z" fill="white"/>
</svg>
